<svg width="8" height="6" viewBox="0 0 20 18" fill="none" xmlns="http://www.w3.org/2000/svg">
<path d="M7 8C7.79113 8 8.56448 7.76541 9.22228 7.32588C9.88008 6.88635 10.3928 6.26164 10.6955 5.53074C10.9983 4.79983 11.0775 3.99556 10.9231 3.21964C10.7688 2.44372 10.3878 1.73098 9.82843 1.17157C9.26902 0.612164 8.55629 0.231202 7.78036 0.0768607C7.00444 -0.0774802 6.20017 0.00173312 5.46927 0.304484C4.73836 0.607234 4.11365 1.11992 3.67412 1.77772C3.2346 2.43552 3 3.20888 3 4C3 5.06087 3.42143 6.07828 4.17157 6.82843C4.92172 7.57857 5.93913 8 7 8ZM7 2C7.39556 2 7.78224 2.1173 8.11114 2.33706C8.44004 2.55683 8.69638 2.86918 8.84776 3.23463C8.99913 3.60009 9.03874 4.00222 8.96157 4.39018C8.8844 4.77814 8.69392 5.13451 8.41421 5.41422C8.13451 5.69392 7.77814 5.8844 7.39018 5.96157C7.00222 6.03874 6.60009 5.99914 6.23463 5.84776C5.86918 5.69639 5.55682 5.44004 5.33706 5.11114C5.1173 4.78224 5 4.39556 5 4C5 3.46957 5.21071 2.96086 5.58579 2.58579C5.96086 2.21072 6.46957 2 7 2Z" fill="#585859"/>
<path d="M15 10C15.5933 10 16.1734 9.82405 16.6667 9.49441C17.1601 9.16477 17.5446 8.69623 17.7716 8.14805C17.9987 7.59987 18.0581 6.99667 17.9424 6.41473C17.8266 5.83279 17.5409 5.29824 17.1213 4.87868C16.7018 4.45912 16.1672 4.1734 15.5853 4.05765C15.0033 3.94189 14.4001 4.0013 13.8519 4.22836C13.3038 4.45543 12.8352 4.83994 12.5056 5.33329C12.1759 5.82664 12 6.40666 12 7C12 7.79565 12.3161 8.55871 12.8787 9.12132C13.4413 9.68393 14.2044 10 15 10ZM15 6C15.1978 6 15.3911 6.05865 15.5556 6.16853C15.72 6.27841 15.8482 6.43459 15.9239 6.61732C15.9996 6.80004 16.0194 7.00111 15.9808 7.19509C15.9422 7.38907 15.847 7.56726 15.7071 7.70711C15.5673 7.84696 15.3891 7.9422 15.1951 7.98079C15.0011 8.01937 14.8 7.99957 14.6173 7.92388C14.4346 7.84819 14.2784 7.72002 14.1685 7.55557C14.0586 7.39112 14 7.19778 14 7C14 6.73478 14.1054 6.48043 14.2929 6.29289C14.4804 6.10536 14.7348 6 15 6Z" fill="#585859"/>
<path d="M15 11C13.8918 11.0012 12.8155 11.3706 11.94 12.05C10.9605 11.0743 9.71406 10.4106 8.35782 10.1424C7.00159 9.87425 5.59632 10.0137 4.31923 10.5431C3.04213 11.0726 1.95041 11.9683 1.18174 13.1174C0.413069 14.2665 0.00187019 15.6175 0 17C0 17.2652 0.105357 17.5196 0.292893 17.7071C0.48043 17.8946 0.734784 18 1 18C1.26522 18 1.51957 17.8946 1.70711 17.7071C1.89464 17.5196 2 17.2652 2 17C2 15.6739 2.52678 14.4021 3.46447 13.4645C4.40215 12.5268 5.67392 12 7 12C8.32608 12 9.59785 12.5268 10.5355 13.4645C11.4732 14.4021 12 15.6739 12 17C12 17.2652 12.1054 17.5196 12.2929 17.7071C12.4804 17.8946 12.7348 18 13 18C13.2652 18 13.5196 17.8946 13.7071 17.7071C13.8946 17.5196 14 17.2652 14 17C14.0024 15.8284 13.7064 14.6755 13.14 13.65C13.5819 13.3008 14.1132 13.083 14.6731 13.0217C15.233 12.9603 15.7989 13.0578 16.306 13.303C16.813 13.5482 17.2408 13.9312 17.5404 14.4081C17.84 14.8851 17.9993 15.4367 18 16C18 16.2652 18.1054 16.5196 18.2929 16.7071C18.4804 16.8946 18.7348 17 19 17C19.2652 17 19.5196 16.8946 19.7071 16.7071C19.8946 16.5196 20 16.2652 20 16C20 14.6739 19.4732 13.4021 18.5355 12.4645C17.5979 11.5268 16.3261 11 15 11Z" fill="#585859"/>
</svg>

